<?xml version="1.0" encoding="UTF-8"?>
<svg width="67px" height="138px" viewBox="0 0 67 138" version="1.1" xmlns="http://www.w3.org/2000/svg" xmlns:xlink="http://www.w3.org/1999/xlink">
    <title>编组</title>
    <g id="页面-1" stroke="none" stroke-width="1" fill="none" fill-rule="evenodd" opacity="0.494992211">
        <g id="Swap---liquidity-none——1920" transform="translate(-959.000000, -452.000000)">
            <g id="编组-5" transform="translate(961.289850, 453.784185)">
                <g id="编组" transform="translate(31.316110, 67.010254) rotate(-2.000000) translate(-31.316110, -67.010254) translate(2.286988, 0.972874)">
                    <path d="M50.9014134,23.8771127 C50.8782337,26.358942 40.1136447,28.2662288 26.8592127,28.1366276 C13.6041,28.0070263 2.87830844,25.8904369 2.9014134,23.4086076 C2.92527377,20.9267783 13.6891821,19.0194914 26.9436141,19.1490926 C40.1980461,19.2786939 50.9245184,21.3952833 50.9014134,23.8771127 Z" id="Stroke-1" stroke="#050101" stroke-width="3"></path>
                    <path d="M44.6548464,116.820853 C44.6362514,118.751041 35.8902273,120.234873 25.1208128,120.133672 C14.3513983,120.033142 5.63631283,118.38712 5.65484644,116.456262 C5.67481431,114.525403 14.4201509,113.042241 25.1895654,113.143442 C35.9596674,113.243303 44.6740654,114.889994 44.6548464,116.820853 Z" id="Stroke-3" stroke="#050101" stroke-width="3"></path>
                    <line x1="51.1066143" y1="23.96683" x2="48.1066143" y2="126.96683" id="Stroke-5" stroke="#050101" stroke-width="3"></line>
                    <path d="M2.9023607,24.0747607 L1.8189894e-12,126.325735 C-0.0231049738,128.754936 10.702695,131.943898 23.9578179,132.070073 C37.2122602,132.196926 47.9768576,129.727702 48,127.298501" id="Stroke-7" stroke="#050101" stroke-width="3"></path>
                    <polyline id="Stroke-9" stroke="#050101" stroke-width="3" stroke-linecap="round" points="44.8269274 27.700122 39.8269274 43.4374092 44.8269274 53.4991437 39.8269274 63.7704265 43.1663782 81.700122"></polyline>
                    <line x1="52.1993658" y1="17.0731793" x2="55.1993658" y2="14.0731793" id="Stroke-11" stroke="#050101" stroke-width="3" stroke-linecap="round"></line>
                    <line x1="54.0582449" y1="19.8754914" x2="58.0582449" y2="19.4404914" id="Stroke-13" stroke="#050101" stroke-width="3" stroke-linecap="round"></line>
                    <line x1="11.7169626" y1="0" x2="32.7169626" y2="115" id="Stroke-15" stroke="#050101" stroke-width="3" stroke-linecap="round"></line>
                    <path d="M5.74209519,113.393807 C5.74209519,112.364887 6.29556751,111.409171 7.20724986,110.908267 C9.1963125,109.814955 13.1668748,108.140079 18.8239807,108.140079 C27.2257593,108.140079 29.5530932,110.942836 34.4319001,110.942836 C37.4309638,110.942836 40.6878562,110.097603 42.7511735,109.445547 C43.7721752,109.123586 44.8000524,109.914593 44.7395486,110.969948 L44.4019648,116.887933 C44.4019648,116.887933 43.5734752,120.140079 25.0379966,120.140079 C6.50251803,120.140079 5.74209519,116.530725 5.74209519,116.530725 L5.74209519,113.393807 Z" id="Fill-17" fill="#5DDA98" opacity="0.50025504"></path>
                </g>
            </g>
        </g>
    </g>
</svg>