<svg xmlns="http://www.w3.org/2000/svg" viewBox="0 0 64.5 64.76"><defs><style>.cls-1{fill:#6bbf8e;}.cls-2{fill:#040000;}.cls-3{fill:none;}</style></defs><g id="图层_2" data-name="图层 2"><g id="图层_1-2" data-name="图层 1"><path class="cls-1" d="M32.24,21.24A1.79,1.79,0,0,0,30.45,23V33.74a1.79,1.79,0,0,0,1.79,1.79H40A1.79,1.79,0,1,0,40,32H34V23a1.79,1.79,0,0,0-1.79-1.79Z"/><path class="cls-2" d="M32.25,13.32a19.06,19.06,0,0,0-15.52,8v-3.2a1.79,1.79,0,0,0-3.58,0v7.14A1.79,1.79,0,0,0,14.94,27H22.7a1.79,1.79,0,0,0,0-3.58H19.58a15.48,15.48,0,1,1-2.34,12.81h0A1.77,1.77,0,0,0,15.54,35a1.79,1.79,0,0,0-1.79,1.79,1.64,1.64,0,0,0,.1.49h0s0,.08,0,.12,0,.07,0,.11A19.08,19.08,0,1,0,32.25,13.32Z"/><rect class="cls-3" y="0.26" width="64.5" height="64.5"/><rect class="cls-3" width="64.5" height="64.5"/></g></g></svg>